<svg width="13" height="20" viewBox="0 0 13 20" fill="none" xmlns="http://www.w3.org/2000/svg">
<mask id="path-1-inside-1_3913_468" fill="white">
<path d="M6.5 0C7.29565 0 8.05871 0.316071 8.62132 0.87868C9.18393 1.44129 9.5 2.20435 9.5 3C9.5 3.79565 9.18393 4.55871 8.62132 5.12132C8.05871 5.68393 7.29565 6 6.5 6C5.70435 6 4.94129 5.68393 4.37868 5.12132C3.81607 4.55871 3.5 3.79565 3.5 3C3.5 2.20435 3.81607 1.44129 4.37868 0.87868C4.94129 0.316071 5.70435 0 6.5 0ZM6.5 7C8.13 7 9.62 7.35 11 8.05C12.34 8.76 13 9.61 13 10.61V16.38C13 17.5 12.14 18.44 10.39 19.19V17C10.39 16.05 9.53 15.38 7.81 14.97C7.25 14.84 6.81 14.78 6.5 14.78C5.63 14.78 4.8 14.95 4.04 15.3C3.27 15.64 2.81 16.08 2.66 16.61C4 17.14 5.28 17.41 6.5 17.41L7.5 17.31V19.94L6.5 20C5.13 20 3.83 19.72 2.61 19.19C0.86 18.44 0 17.5 0 16.38V10.61C0 9.61 0.66 8.76 2 8.05C3.38 7.35 4.88 7 6.5 7ZM6.5 9C5.96957 9 5.46086 9.21071 5.08579 9.58579C4.71071 9.96086 4.5 10.4696 4.5 11C4.5 11.5304 4.71071 12.0391 5.08579 12.4142C5.46086 12.7893 5.96957 13 6.5 13C7.03043 13 7.53914 12.7893 7.91421 12.4142C8.28929 12.0391 8.5 11.5304 8.5 11C8.5 10.4696 8.28929 9.96086 7.91421 9.58579C7.53914 9.21071 7.03043 9 6.5 9Z"/>
</mask>
<path d="M6.5 0C7.29565 0 8.05871 0.316071 8.62132 0.87868C9.18393 1.44129 9.5 2.20435 9.5 3C9.5 3.79565 9.18393 4.55871 8.62132 5.12132C8.05871 5.68393 7.29565 6 6.5 6C5.70435 6 4.94129 5.68393 4.37868 5.12132C3.81607 4.55871 3.5 3.79565 3.5 3C3.5 2.20435 3.81607 1.44129 4.37868 0.87868C4.94129 0.316071 5.70435 0 6.5 0ZM6.5 7C8.13 7 9.62 7.35 11 8.05C12.34 8.76 13 9.61 13 10.61V16.38C13 17.5 12.14 18.44 10.39 19.19V17C10.39 16.05 9.53 15.38 7.81 14.97C7.25 14.84 6.81 14.78 6.5 14.78C5.63 14.78 4.8 14.95 4.04 15.3C3.27 15.64 2.81 16.08 2.66 16.61C4 17.14 5.28 17.41 6.5 17.41L7.5 17.31V19.94L6.5 20C5.13 20 3.83 19.72 2.61 19.19C0.86 18.44 0 17.5 0 16.38V10.61C0 9.61 0.66 8.76 2 8.05C3.38 7.35 4.88 7 6.5 7ZM6.5 9C5.96957 9 5.46086 9.21071 5.08579 9.58579C4.71071 9.96086 4.5 10.4696 4.5 11C4.5 11.5304 4.71071 12.0391 5.08579 12.4142C5.46086 12.7893 5.96957 13 6.5 13C7.03043 13 7.53914 12.7893 7.91421 12.4142C8.28929 12.0391 8.5 11.5304 8.5 11C8.5 10.4696 8.28929 9.96086 7.91421 9.58579C7.53914 9.21071 7.03043 9 6.5 9Z" fill="white"/>
<path d="M11 8.05L11.4682 7.16637L11.4603 7.1622L11.4524 7.15817L11 8.05ZM10.39 19.19H9.39V20.7065L10.7839 20.1091L10.39 19.19ZM7.81 14.97L8.04188 13.9972L8.03613 13.9959L7.81 14.97ZM4.04 15.3L4.44393 16.2148L4.45114 16.2116L4.4583 16.2083L4.04 15.3ZM2.66 16.61L1.69779 16.3377L1.45163 17.2074L2.2922 17.5399L2.66 16.61ZM6.5 17.41V18.41H6.54988L6.5995 18.405L6.5 17.41ZM7.5 17.31H8.5V16.205L7.4005 16.315L7.5 17.31ZM7.5 19.94L7.55989 20.9382L8.5 20.8818V19.94H7.5ZM6.5 20V21H6.52997L6.55989 20.9982L6.5 20ZM2.61 19.19L3.00846 18.2728L3.00392 18.2709L2.61 19.19ZM2 8.05L1.54762 7.15817L1.53968 7.1622L1.53181 7.16637L2 8.05ZM6.5 1C7.03043 1 7.53914 1.21071 7.91421 1.58579L9.32843 0.171573C8.57828 -0.578573 7.56087 -1 6.5 -1V1ZM7.91421 1.58579C8.28929 1.96086 8.5 2.46957 8.5 3H10.5C10.5 1.93913 10.0786 0.921719 9.32843 0.171573L7.91421 1.58579ZM8.5 3C8.5 3.53043 8.28929 4.03914 7.91421 4.41421L9.32843 5.82843C10.0786 5.07828 10.5 4.06087 10.5 3H8.5ZM7.91421 4.41421C7.53914 4.78929 7.03043 5 6.5 5V7C7.56087 7 8.57828 6.57857 9.32843 5.82843L7.91421 4.41421ZM6.5 5C5.96957 5 5.46086 4.78929 5.08579 4.41421L3.67157 5.82843C4.42172 6.57857 5.43913 7 6.5 7V5ZM5.08579 4.41421C4.71071 4.03914 4.5 3.53043 4.5 3H2.5C2.5 4.06087 2.92143 5.07828 3.67157 5.82843L5.08579 4.41421ZM4.5 3C4.5 2.46957 4.71071 1.96086 5.08579 1.58579L3.67157 0.171573C2.92143 0.921719 2.5 1.93913 2.5 3H4.5ZM5.08579 1.58579C5.46086 1.21071 5.96957 1 6.5 1V-1C5.43913 -1 4.42172 -0.578573 3.67157 0.171573L5.08579 1.58579ZM6.5 8C7.97989 8 9.314 8.31608 10.5476 8.94183L11.4524 7.15817C9.926 6.38392 8.28011 6 6.5 6V8ZM10.5318 8.93363C11.7268 9.56679 12 10.1488 12 10.61H14C14 9.07117 12.9532 7.95321 11.4682 7.16637L10.5318 8.93363ZM12 10.61V16.38H14V10.61H12ZM12 16.38C12 16.8721 11.6474 17.5632 9.99608 18.2709L10.7839 20.1091C12.6326 19.3168 14 18.1279 14 16.38H12ZM11.39 19.19V17H9.39V19.19H11.39ZM11.39 17C11.39 16.1683 10.992 15.49 10.3624 14.9959C9.76928 14.5303 8.96435 14.2171 8.04188 13.9973L7.57812 15.9427C8.37565 16.1329 8.86072 16.3597 9.12758 16.5691C9.35799 16.75 9.39 16.8817 9.39 17H11.39ZM8.03613 13.9959C7.4428 13.8582 6.91894 13.78 6.5 13.78V15.78C6.70106 15.78 7.0572 15.8218 7.58387 15.9441L8.03613 13.9959ZM6.5 13.78C5.4982 13.78 4.52387 13.9762 3.6217 14.3917L4.4583 16.2083C5.07613 15.9238 5.7618 15.78 6.5 15.78V13.78ZM3.63607 14.3852C2.73446 14.7833 1.96315 15.4001 1.69779 16.3377L3.62221 16.8823C3.65685 16.7599 3.80554 16.4967 4.44393 16.2148L3.63607 14.3852ZM2.2922 17.5399C3.72592 18.107 5.13117 18.41 6.5 18.41V16.41C5.42883 16.41 4.27408 16.173 3.0278 15.6801L2.2922 17.5399ZM6.5995 18.405L7.5995 18.305L7.4005 16.315L6.4005 16.415L6.5995 18.405ZM6.5 17.31V19.94H8.5V17.31H6.5ZM7.44011 18.9418L6.44011 19.0018L6.55989 20.9982L7.55989 20.9382L7.44011 18.9418ZM6.5 19C5.26993 19 4.10535 18.7493 3.00845 18.2728L2.21155 20.1072C3.55465 20.6907 4.99007 21 6.5 21V19ZM3.00392 18.2709C1.35263 17.5632 1 16.8721 1 16.38H-1C-1 18.1279 0.367365 19.3168 2.21608 20.1091L3.00392 18.2709ZM1 16.38V10.61H-1V16.38H1ZM1 10.61C1 10.1488 1.27322 9.56679 2.46819 8.93363L1.53181 7.16637C0.0467841 7.95321 -1 9.07117 -1 10.61H1ZM2.45238 8.94183C3.68556 8.3163 5.0296 8 6.5 8V6C4.7304 6 3.07444 6.3837 1.54762 7.15817L2.45238 8.94183ZM6.5 8C5.70435 8 4.94129 8.31607 4.37868 8.87868L5.79289 10.2929C5.98043 10.1054 6.23478 10 6.5 10V8ZM4.37868 8.87868C3.81607 9.44129 3.5 10.2043 3.5 11H5.5C5.5 10.7348 5.60536 10.4804 5.79289 10.2929L4.37868 8.87868ZM3.5 11C3.5 11.7957 3.81607 12.5587 4.37868 13.1213L5.79289 11.7071C5.60536 11.5196 5.5 11.2652 5.5 11H3.5ZM4.37868 13.1213C4.94129 13.6839 5.70435 14 6.5 14V12C6.23478 12 5.98043 11.8946 5.79289 11.7071L4.37868 13.1213ZM6.5 14C7.29565 14 8.05871 13.6839 8.62132 13.1213L7.20711 11.7071C7.01957 11.8946 6.76522 12 6.5 12V14ZM8.62132 13.1213C9.18393 12.5587 9.5 11.7957 9.5 11H7.5C7.5 11.2652 7.39464 11.5196 7.20711 11.7071L8.62132 13.1213ZM9.5 11C9.5 10.2043 9.18393 9.44129 8.62132 8.87868L7.20711 10.2929C7.39464 10.4804 7.5 10.7348 7.5 11H9.5ZM8.62132 8.87868C8.05871 8.31607 7.29565 8 6.5 8V10C6.76522 10 7.01957 10.1054 7.20711 10.2929L8.62132 8.87868Z" fill="white" mask="url(#path-1-inside-1_3913_468)"/>
</svg>
