<svg width="257" height="177" viewBox="0 0 257 177" fill="none" xmlns="http://www.w3.org/2000/svg">
<path d="M44.8578 150.749C44.8578 150.749 26.9021 138.133 35.149 122.273C43.3958 106.414 59.918 82.0672 51.6541 69.6512C43.3901 57.2353 42.5734 17.4974 90.0556 11.3979C127.92 6.54344 139.434 26.5438 145.299 40.1876C153.043 58.1947 146.122 91.0679 182.33 95.4026C218.538 99.7374 239.23 117.642 213.29 146.803C201.953 159.584 44.8578 150.749 44.8578 150.749Z" fill="#FFE38B"/>
<path d="M109.725 140.84C83.0027 146.683 61.2376 138.556 68.6678 124.775C76.0979 110.994 71.5233 109.235 65.8122 104.894C60.1011 100.554 47.2225 88.475 59.7527 75.1967C72.2829 61.9183 62.7739 58.0633 58.8561 50.2734C47.4339 27.4975 93.8195 18.1484 81.2608 39.1082C71.8374 54.8423 72.3343 66.887 84.0478 74.894C95.7613 82.901 98.1085 87.1215 97.5945 97.0188C97.0805 106.916 93.0257 127.939 104.973 127.065C116.921 126.191 123.432 137.842 109.725 140.84Z" fill="#EBF2FF"/>
<path d="M61.1806 47.1665C59.9413 44.8135 59.6443 33.2485 70.8895 33.8482C77.7428 34.2137 74.1734 43.5571 72.6028 50.7131C71.0323 57.8691 72.1117 69.1486 74.9672 73.786C80.2386 82.3527 79.1078 85.9392 72.5857 93.278C72.5857 93.278 69.199 98.7321 75.4412 104.58C81.6835 110.428 79.2734 126.54 86.5322 129.138C93.791 131.737 97.8916 137.316 92.9173 137.83C87.9429 138.344 67.3715 140.355 72.7856 126.802C80.6841 107.065 65.2869 101.216 61.4547 96.836C57.9367 92.8383 54.9269 83.8547 65.127 72.6095C72.9969 63.94 64.9614 54.431 61.1806 47.1665Z" fill="#FDE67E"/>
<path d="M88.9241 149.852L88.5129 151.663C81.5311 149.706 74.8818 146.715 68.7867 142.788C55.4342 134.221 47.3187 122.45 45.3369 108.732L47.0502 108.435C51.682 140.286 88.5472 149.761 88.9241 149.852Z" fill="#D90A0A"/>
<path d="M46.594 110.566C46.594 110.566 36.8851 105.426 40.9114 93.5693C40.9114 93.5693 49.5181 100.56 46.594 110.566Z" fill="#D90A0A"/>
<path d="M49.7007 120.252C49.7007 120.252 36.4795 124.666 31.0996 109.743C31.0996 109.743 38.1528 107.156 49.7007 120.252Z" fill="#D90A0A"/>
<path d="M49.2497 120.309C49.2497 120.309 61.5228 113.455 55.4062 98.875C55.4062 98.875 48.7014 102.347 49.2497 120.309Z" fill="#D90A0A"/>
<path d="M56.5766 131.36C56.5766 131.36 43.8351 137.185 37.0332 122.942C37.0332 122.942 43.7952 119.595 56.5766 131.36Z" fill="#D90A0A"/>
<path d="M56.1312 131.463C56.1312 131.463 67.6848 123.324 60.1689 109.48C60.1689 109.48 53.8296 113.672 56.1312 131.463Z" fill="#D90A0A"/>
<path d="M67.5537 141.04C67.5537 141.04 55.9145 149.036 46.9023 136.26C46.9023 136.26 53.0361 131.737 67.5537 141.04Z" fill="#D90A0A"/>
<path d="M67.1199 141.194C67.1199 141.194 77.1943 131.091 67.5482 118.83C67.5482 118.83 61.9799 124.101 67.1199 141.194Z" fill="#D90A0A"/>
<path d="M78.8274 147.065C78.8274 147.065 69.5697 158.008 57.6963 148.173C57.6906 148.173 62.5108 142.131 78.8274 147.065Z" fill="#D90A0A"/>
<path d="M78.4675 147.357C78.4675 147.357 85.7377 134.855 73.3732 125.706C73.3732 125.706 69.284 132.308 78.4675 147.357Z" fill="#D90A0A"/>
<path d="M157.812 149.892C183.403 156.877 204.877 150.104 198.361 136.368C191.844 122.633 196.345 121.182 202.107 117.265C207.87 113.347 220.92 102.279 209.44 88.8062C197.961 75.3337 207.373 72.0784 211.553 64.711C223.758 43.2201 179.286 31.8607 190.422 52.7862C198.772 68.4918 197.698 80.131 185.945 87.3042C174.191 94.4773 171.736 98.4523 171.741 108.058C171.747 117.664 174.631 138.23 163.106 136.791C151.581 135.352 144.688 146.311 157.812 149.892Z" fill="#D90A0A"/>
<g style="mix-blend-mode:overlay" opacity="0.2">
<path d="M209.457 61.587C210.776 59.3653 211.633 48.1887 200.742 48.2058C194.117 48.2058 197.087 57.4293 198.229 64.4539C199.371 71.4786 197.789 82.3297 194.802 86.6816C189.274 94.6771 190.188 98.2466 196.145 105.677C196.145 105.677 199.149 111.125 192.804 116.482C186.459 121.839 188.006 137.556 180.85 139.726C173.694 141.897 169.428 147.077 174.231 147.825C179.034 148.573 198.857 151.537 194.271 138.116C187.606 118.618 202.804 113.712 206.739 109.663C210.348 105.951 213.701 97.4128 204.38 86.0191C197.167 77.2183 205.419 68.4346 209.457 61.587Z" fill="#F6F5F7"/>
</g>
<path d="M154.083 149.441L153.694 147.071C191.359 140.915 207.647 111.422 207.813 111.12L209.932 112.262C209.76 112.565 192.953 143.096 154.083 149.441Z" fill="#EBF2FF"/>
<path d="M207.659 113.136C207.659 113.136 212.576 100.417 218.99 104.477C221.714 106.202 220.246 112.376 207.659 113.136Z" fill="#EBF2FF"/>
<path d="M204.804 117.293C204.804 117.293 217.34 110.051 218.647 117.373C219.196 120.48 213.702 124.592 204.804 117.293Z" fill="#EBF2FF"/>
<path d="M204.826 118.647C204.826 118.647 212.502 106.939 204.604 105.814C201.234 105.323 196.871 110.457 204.826 118.647Z" fill="#EBF2FF"/>
<path d="M196.476 127.133C196.476 127.133 204.74 115.711 196.933 114.221C193.609 113.587 189.012 118.533 196.476 127.133Z" fill="#EBF2FF"/>
<path d="M189.161 133.616C189.161 133.616 197.362 122.193 189.555 120.709C186.254 120.058 181.645 125.049 189.161 133.616Z" fill="#EBF2FF"/>
<path d="M178.926 139.961C178.926 139.961 189.052 129.863 181.81 127.088C178.72 125.906 173.346 130.126 178.926 139.961Z" fill="#EBF2FF"/>
<path d="M170.068 143.998C170.068 143.998 179.903 133.655 172.541 131.091C169.423 130.006 164.157 134.352 170.068 143.998Z" fill="#EBF2FF"/>
<path d="M157.938 147.482C157.938 147.482 170.194 139.755 164.123 135.323C161.53 133.427 155.328 136.38 157.938 147.482Z" fill="#EBF2FF"/>
<path d="M198.675 124.958C198.675 124.958 211.239 117.71 212.524 125.043C213.095 128.161 207.596 132.239 198.675 124.958Z" fill="#EBF2FF"/>
<path d="M191.182 131.714C191.182 131.714 203.746 124.478 205.031 131.805C205.591 134.918 200.097 139.007 191.182 131.714Z" fill="#EBF2FF"/>
<path d="M182.958 137.208C182.958 137.208 196.665 132.639 196.094 140.241C195.837 143.473 189.606 146.391 182.958 137.208Z" fill="#EBF2FF"/>
<path d="M173.232 142.365C173.232 142.365 187.219 139.11 185.797 146.688C185.169 149.915 178.732 152.245 173.232 142.365Z" fill="#EBF2FF"/>
<path d="M162.924 145.975C162.924 145.975 177.036 144.575 174.46 152.023C173.347 155.181 166.722 156.66 162.924 145.975Z" fill="#EBF2FF"/>
<path d="M212.661 152.931C212.661 155.918 174.123 158.345 126.578 158.345C79.0327 158.345 40.4941 155.918 40.4941 152.931C40.4941 149.944 79.0384 147.511 126.578 147.511C174.117 147.511 212.661 149.938 212.661 152.931Z" fill="#3A4D70"/>
<path d="M191.69 91.9532C191.69 103.885 188.152 115.548 181.523 125.469C174.894 135.389 165.473 143.122 154.45 147.688C143.426 152.254 131.297 153.448 119.594 151.12C107.892 148.793 97.1432 143.047 88.7063 134.61C80.2695 126.174 74.524 115.424 72.1963 103.722C69.8686 92.0201 71.0632 79.8905 75.6292 68.8672C80.1952 57.844 87.9274 48.4223 97.848 41.7936C107.769 35.1648 119.432 31.6267 131.364 31.6267C147.363 31.6267 162.707 37.9825 174.021 49.2959C185.334 60.6093 191.69 75.9536 191.69 91.9532Z" fill="#FFCE33"/>
<path d="M136.749 114.375C138.497 117.23 136.749 121.502 132.792 123.918C128.834 126.334 124.225 125.98 122.512 123.13L102.351 90.3254C100.598 87.4699 102.351 83.198 106.309 80.7822C110.267 78.3664 114.876 78.7205 116.589 81.576L136.749 114.375Z" fill="#F6F5F7"/>
<path d="M135.996 121.537C134.835 123.43 132.969 124.784 130.809 125.302C128.649 125.82 126.372 125.459 124.479 124.298C122.586 123.137 121.231 121.271 120.713 119.112C120.195 116.952 120.557 114.675 121.718 112.781L149.479 67.5494C150.639 65.6561 152.503 64.3009 154.662 63.7819C156.82 63.263 159.097 63.6229 160.99 64.7824C162.884 65.9419 164.239 67.806 164.758 69.9647C165.277 72.1234 164.917 74.3998 163.757 76.2931L135.996 121.537Z" fill="#F6F5F7"/>
<path d="M87.0911 83.5919C87.9249 83.2035 90.6777 83.0208 92.1112 85.1625C94.0415 88.0637 94.7097 95.1398 99.0216 97.2757C103.334 99.4117 106.046 97.5841 108.011 96.5961C109.976 95.6081 110.295 94.3117 111.512 93.8548C112.728 93.3979 113.185 94.8713 110.41 97.2015C109.073 98.3151 103.191 104.626 97.5824 103.038C90.2151 100.965 82.1396 85.8535 87.0911 83.5919Z" fill="#E28C71"/>
<path d="M93.4993 129.258C92.2886 136.631 91.3177 152.279 94.5502 152.154C97.7827 152.028 99.536 150.834 97.6285 150.383C95.721 149.932 95.6467 149.704 95.6696 149.121C95.818 145.432 98.6679 138.407 99.7416 133.027C100.992 126.791 94.5616 122.81 93.4993 129.258Z" fill="#FFCE33"/>
<path d="M93.0762 150.675C93.0762 150.675 95.9831 151.726 97.6451 150.384C97.6451 150.384 100.855 150.652 98.9072 151.629C96.9597 152.605 93.1618 153.559 93.0762 150.675Z" fill="#6E86CC"/>
<path d="M81.6144 98.9263C81.6144 98.9263 98.3137 110.651 100.718 116.631C102.871 122.028 97.8625 143.753 97.8625 143.753C97.8625 143.753 94.3388 145.152 91.112 143.182L91.5346 126.288L77.4453 113.398L81.6144 98.9263Z" fill="#C92F3B"/>
<path d="M70.8434 130.189C64.6754 135.283 52.8705 147.202 55.5776 149.384C58.2846 151.566 60.5177 151.823 59.3012 150.121C58.0848 148.419 58.159 148.167 58.6102 147.722C61.3287 144.866 68.5589 141.194 73.2021 137.625C78.6105 133.473 76.2347 125.729 70.8434 130.189Z" fill="#FFCE33"/>
<path d="M55.4235 147.134C55.4235 147.134 57.0283 150.024 59.3014 150.104C59.3014 150.104 61.6943 152.571 59.4441 151.988C57.194 151.406 53.4589 149.504 55.4235 147.134Z" fill="#6E86CC"/>
<path d="M79.1412 98.8406C79.1412 98.8406 87.8049 118.578 85.5205 125.112C83.4702 130.977 64.1552 144.946 64.1552 144.946C64.1552 144.946 60.3288 143.599 59.1123 139.726L71.3455 126.42C71.3455 126.42 66.4568 111.028 68.8555 105.328C68.9411 105.134 68.5242 106.682 68.5242 106.682L79.1412 98.8406Z" fill="#E03D51"/>
<path d="M89.5648 107.579C92.763 103.353 94.5734 96.8076 94.7048 91.7304C94.8818 84.6829 88.651 82.8667 84.6989 82.4898C80.7468 82.1129 74.2704 81.3476 74.5331 90.1256C74.7102 96.2536 72.4885 99.4518 69.3931 104.632C69.3074 104.769 69.2218 104.883 69.1418 105.014C64.7443 110.394 85.9268 112.365 89.5648 107.579Z" fill="#FCDCDA"/>
<path d="M69.3756 104.632C69.2899 104.769 69.2043 104.883 69.1243 105.014C65.7319 109.172 77.6339 111.297 84.8813 109.829C86.0235 108.15 80.558 107.699 78.5419 106.065C73.8931 102.296 90.4667 101.976 87.6169 100.588C84.5329 99.1033 79.9469 99.6973 81.9629 95.1855C83.9789 90.6737 82.2427 85.2653 80.3352 83.4377C78.4277 81.6102 75.0068 83.7633 74.6241 87.921C74.5222 88.6511 74.4839 89.3887 74.5099 90.1254C74.7041 96.2535 72.4825 99.4517 69.3756 104.632Z" fill="#EFBEBD"/>
<path d="M85.2525 77.3269C85.2525 77.3269 86.1263 80.6679 83.6591 81.8958C81.1919 83.1237 88.8905 89.3202 89.0104 87.4984C89.1704 85.134 88.2337 83.5406 89.8614 81.0962L85.2525 77.3269Z" fill="#E67052"/>
<path d="M91.2208 72.4209C92.8485 74.6425 93.4424 83.1921 91.0437 84.6084C89.9929 85.2195 86.4749 83.649 84.7615 79.6226C84.0648 77.9721 83.3909 74.9909 85.3955 72.4952C86.3092 71.3644 89.3247 69.8338 91.2208 72.4209Z" fill="#EE9D7F"/>
<path d="M84.1669 72.3755C83.5095 73.1534 83.0675 74.0902 82.8852 75.0923C82.7028 76.0944 82.7863 77.1268 83.1275 78.0866C83.6986 79.7999 85.0807 81.4161 85.5033 80.9421C86.0116 80.371 84.087 79.7257 84.9722 78.018C85.8574 76.3104 84.7323 75.705 85.3206 74.1745C85.9088 72.6439 87.0339 73.175 90.5805 73.2892C92.0426 73.3349 92.4081 72.8381 92.3567 72.227C90.552 69.5999 86.3943 69.577 84.1669 72.3755Z" fill="#062440"/>
<path d="M92.648 74.2714C93.516 72.2097 96.6457 72.7008 95.6292 71.2445C94.9667 70.2679 94.9609 71.0046 87.5765 69.4969C84.1498 68.7944 83.4531 70.2679 82.7963 72.2097C82.1909 74.003 82.3794 78.4062 84.7381 81.0048C87.0968 83.6033 84.6638 79.2915 85.5662 77.3268C86.4685 75.3622 87.0625 76.1846 88.3646 76.5216C89.6668 76.8585 91.2487 77.5953 92.648 74.2714Z" fill="#353A66"/>
<path d="M68.3311 110.48L74.5847 119.441L124.9 84.3116L131.365 73.135L118.64 75.3509L68.3311 110.48Z" fill="#494C7F"/>
<path d="M122.117 80.3082L71.7998 115.436L74.5885 119.431L124.906 84.3027L122.117 80.3082Z" fill="#373C66"/>
<path d="M131.364 73.135L129.616 76.1619L127.932 73.7347L131.364 73.135Z" fill="#9474F4"/>
<path d="M78.8844 82.8952C79.8268 82.9752 81.4544 84.3858 81.6658 87.0129C81.9627 90.531 79.9524 96.8589 82.7509 100.862C85.5493 104.866 88.8161 104.58 91.032 104.677C93.2479 104.774 94.1902 103.764 95.4695 103.958C96.7488 104.152 96.4575 105.671 92.8595 106.385C91.1462 106.722 82.8308 109.406 78.6332 105.243C73.1276 99.8115 73.3961 82.4612 78.8844 82.8952Z" fill="#E28C71"/>
</svg>
